<svg height="512" viewBox="0 0 256 256" width="512" xmlns="http://www.w3.org/2000/svg"><g fill="#87d147"><path d="m230.881 197.765a13.981 13.981 0 0 1 -1-10.131 44.869 44.869 0 0 0 -5.917-37.634 36.588 36.588 0 0 0 -26.064-16.268 10.737 10.737 0 0 1 -7.822-5.149c-4.673-7.713-12.036-11.942-16.716-13.984a10.459 10.459 0 0 1 -5.867-6.7l-.711-2.469a79.865 79.865 0 0 1 -8.632 8.968 32.769 32.769 0 0 0 -4.9 5.623 26.375 26.375 0 0 1 -10.695 8.357 23.673 23.673 0 0 1 -19.68 0 26.379 26.379 0 0 1 -10.7-8.357 32.641 32.641 0 0 0 -4.888-5.61 79.929 79.929 0 0 1 -8.646-8.981l-.711 2.469a10.457 10.457 0 0 1 -5.866 6.7 42.366 42.366 0 0 0 -5.871 3.135c1.346 15.866 3.005 46.656-2.795 59.866-5.1 11.614-1.005 49.81 2.623 75.9h141.83a6.183 6.183 0 0 0 5.957-4.594c7.005-26.014 1.069-43.327-2.929-51.141z"/><path d="m36.877 158.65a45.514 45.514 0 0 0 -1.33 28.984 13.985 13.985 0 0 1 -1 10.131c-4 7.814-9.935 25.127-2.93 51.141a6.183 6.183 0 0 0 5.957 4.594h35.773c-6.454-28.706-22.325-68.228-31.7-84.631a72.66 72.66 0 0 1 -4.77-10.219z"/><path d="m173.238 66.779a7.246 7.246 0 0 1 -.968-5.677 47.2 47.2 0 0 0 1.2-10.6c0-24.3-18.248-44-40.757-44s-40.758 19.7-40.758 44a47.2 47.2 0 0 0 1.2 10.6 7.242 7.242 0 0 1 -.968 5.677c-2.252 3.365-3.94 8-3.94 14.369 0 14.656 13 27.911 19.111 33.327a32.141 32.141 0 0 1 4.82 5.55 26.369 26.369 0 0 0 10.694 8.355 23.673 23.673 0 0 0 19.68 0 26.382 26.382 0 0 0 10.694-8.355 31.928 31.928 0 0 1 4.8-5.534c6.1-5.406 19.129-18.672 19.129-33.343.003-6.365-1.685-11.004-3.937-14.369z"/><path d="m183.328 45.6c-3.524-1.762-6.955-.483-9.956 1.983.059.967.1 1.939.1 2.922a47.2 47.2 0 0 1 -1.2 10.6 7.246 7.246 0 0 0 .968 5.677 24.575 24.575 0 0 1 3.83 11.745c9.187-2.652 8.584-9.758 7.39-13.785a6.547 6.547 0 0 1 .88-5.436c2.16-3.306 3.726-10.842-2.012-13.706z"/><path d="m92.189 66.779a7.242 7.242 0 0 0 .968-5.677 47.2 47.2 0 0 1 -1.2-10.6c0-.983.04-1.955.1-2.922-3-2.466-6.432-3.745-9.956-1.983-5.74 2.867-4.173 10.403-2.012 13.703a6.547 6.547 0 0 1 .88 5.436c-1.194 4.027-1.8 11.133 7.39 13.785a24.579 24.579 0 0 1 3.83-11.742z"/></g><path d="m86.769 119.647a3.094 3.094 0 0 0 -.479-.778c1.324 16.157 2.78 45.831-2.89 58.731-5.1 11.614-1.005 49.81 2.623 75.9h104.691a375.618 375.618 0 0 0 5.131-41.044c-72.099-7.72-103.194-78.775-109.076-92.809z" fill="#c7d7e5"/><path d="m83.4 177.6c6.179-14.067 3.89-48.079 2.537-62.763-.432-4.684-4.212-8.558-9.638-9.775a56.528 56.528 0 0 0 -40.121 5.531c-4.4 2.447-6.939 6.635-6.688 10.883.615 10.387 2.993 31.371 12.152 47.4 9.377 16.4 25.248 55.925 31.7 84.631h12.684c-3.626-26.099-7.726-64.295-2.626-75.907z" fill="#965622"/><path d="m156.38 57.886c-4.235 1.2-8.336 3.045-11.637 4a5.933 5.933 0 0 0 -.273 3.1c.667 3.625 4.6 5.94 8.781 5.17s7.033-4.332 6.366-7.957a6.268 6.268 0 0 0 -3.237-4.313z" fill="#f5c84c"/><path d="m109.047 57.886c4.235 1.2 8.336 3.045 11.637 4a5.923 5.923 0 0 1 .273 3.1c-.667 3.625-4.6 5.94-8.781 5.17s-7.033-4.332-6.366-7.957a6.268 6.268 0 0 1 3.237-4.313z" fill="#f5c84c"/><path d="m146 106.243a4.927 4.927 0 0 0 5.292 1.444 19.027 19.027 0 0 0 -2.832-13.316.984.984 0 0 0 -1.791.263 49.9 49.9 0 0 1 -3.835 10.35 4.407 4.407 0 0 1 3.166 1.259z" fill="#f5c84c"/><path d="m119.432 106.243a4.927 4.927 0 0 1 -5.292 1.444 19.027 19.027 0 0 1 2.832-13.316.984.984 0 0 1 1.791.263 49.9 49.9 0 0 0 3.835 10.35 4.407 4.407 0 0 0 -3.166 1.259z" fill="#f5c84c"/><path d="m79.086 20.738h-2.266v-2.266a3.071 3.071 0 0 0 -6.142 0v2.266h-2.266a3.071 3.071 0 0 0 0 6.142h2.266v2.267a3.071 3.071 0 1 0 6.142 0v-2.267h2.266a3.071 3.071 0 0 0 0-6.142z" fill="#f5c84c"/><path d="m207.571 103.64a10.8 10.8 0 0 1 -8.654-8.479.2.2 0 0 0 -.384 0 10.8 10.8 0 0 1 -8.655 8.479.19.19 0 0 0 0 .376 10.8 10.8 0 0 1 8.655 8.478.2.2 0 0 0 .384 0 10.793 10.793 0 0 1 8.654-8.478.19.19 0 0 0 0-.376z" fill="#ef4460"/><circle cx="217.733" cy="123.285" fill="#f5c84c" r="3.285"/><circle cx="89.733" cy="3.285" fill="#87d147" r="3.285"/><circle cx="19.733" cy="158.285" fill="#70d6f9" r="3.285"/><circle cx="167.714" cy="190.285" r="3.285"/><path d="m132.714 92.279a2.5 2.5 0 0 1 0-5 7.891 7.891 0 0 0 7.114-4.518 5.8 5.8 0 0 1 10.345-.181 2.572 2.572 0 0 1 -1.079 3.429 2.428 2.428 0 0 1 -3.316-1.042.821.821 0 0 0 -.763-.48.712.712 0 0 0 -.661.4 12.914 12.914 0 0 1 -11.64 7.392z"/><path d="m132.712 92.279a12.913 12.913 0 0 1 -11.638-7.391.714.714 0 0 0 -.662-.4.791.791 0 0 0 -.725.4 2.536 2.536 0 0 1 -3.373 1.156 2.465 2.465 0 0 1 -1.137-3.317l.075-.147a5.762 5.762 0 0 1 5.263-3.095 5.7 5.7 0 0 1 5.084 3.273 7.892 7.892 0 0 0 7.113 4.518 2.5 2.5 0 0 1 0 5z"/><path d="m227.853 256h-141.827a2.5 2.5 0 0 1 -2.476-2.156c-7.227-51.98-5.314-70.7-2.437-77.251 5.722-13.027 3.719-45.353 2.592-58.647a2.5 2.5 0 0 1 1.142-2.317 44.715 44.715 0 0 1 6.221-3.321 7.938 7.938 0 0 0 4.462-5.1l.712-2.469a2.5 2.5 0 0 1 4.338-.89 77.75 77.75 0 0 0 8.371 8.7 34.973 34.973 0 0 1 5.267 6.034 23.59 23.59 0 0 0 9.7 7.528 21.117 21.117 0 0 0 17.6 0 23.585 23.585 0 0 0 9.695-7.528 35.159 35.159 0 0 1 5.282-6.047 77.609 77.609 0 0 0 8.357-8.682 2.5 2.5 0 0 1 4.338.89l.711 2.469a7.946 7.946 0 0 0 4.464 5.1c5.444 2.374 12.96 6.9 17.855 14.98a8.231 8.231 0 0 0 6 3.964 39.241 39.241 0 0 1 27.821 17.35 47.394 47.394 0 0 1 6.252 39.706 11.438 11.438 0 0 0 .818 8.319c4.25 8.307 10.308 26.227 3.118 52.93a8.7 8.7 0 0 1 -8.376 6.438zm-139.647-5h139.647a3.69 3.69 0 0 0 3.543-2.744c6.754-25.083 1.182-41.687-2.741-49.351a16.429 16.429 0 0 1 -1.183-11.943 42.453 42.453 0 0 0 -5.581-35.563 34.3 34.3 0 0 0 -24.309-15.186 13.2 13.2 0 0 1 -9.643-6.334c-4.215-6.957-10.8-10.9-15.578-12.987a12.908 12.908 0 0 1 -6.595-6.477c-2.259 2.455-4.381 4.455-5.953 5.854a30.292 30.292 0 0 0 -4.524 5.2 28.467 28.467 0 0 1 -11.695 9.185 26.108 26.108 0 0 1 -21.761 0 28.473 28.473 0 0 1 -11.7-9.186 30.214 30.214 0 0 0 -4.508-5.186c-1.576-1.4-3.7-3.406-5.968-5.867a12.906 12.906 0 0 1 -6.594 6.477 39.46 39.46 0 0 0 -4.253 2.169c1.4 17.234 2.663 46.372-3.123 59.544-3.628 8.269-2.732 33.94 2.519 72.395z"/><path d="m73.347 256h-35.773a8.7 8.7 0 0 1 -8.371-6.444c-7.19-26.7-1.133-44.623 3.118-52.93a11.446 11.446 0 0 0 .819-8.318 48.385 48.385 0 0 1 1.414-30.582 2.5 2.5 0 0 1 2.323-1.576h.023a2.5 2.5 0 0 1 2.317 1.611 70.334 70.334 0 0 0 4.6 9.868c9.949 17.4 25.735 57.589 31.97 85.323a2.5 2.5 0 0 1 -2.44 3.048zm-36.081-90.1a44.318 44.318 0 0 0 .689 21.062 16.429 16.429 0 0 1 -1.183 11.938c-3.923 7.665-9.495 24.269-2.741 49.352a3.689 3.689 0 0 0 3.543 2.748h32.626c-6.558-27.131-21.306-64.42-30.721-80.89q-1.15-2.01-2.213-4.21z"/><path d="m132.713 182.563a2.5 2.5 0 0 1 -2.5-2.5v-14.563c0-5.668-8.331-14.139-31.712-20.916a2.5 2.5 0 1 1 1.392-4.8c10.62 3.079 35.32 11.747 35.32 25.719v14.563a2.5 2.5 0 0 1 -2.5 2.497z"/><path d="m132.713 187a2.5 2.5 0 0 1 -2.5-2.5v-19c0-7.285 6.547-13.98 19.459-19.9a118.483 118.483 0 0 1 18.435-6.528 2.5 2.5 0 0 1 1.213 4.85 115.571 115.571 0 0 0 -17.623 6.249c-10.63 4.882-16.484 10.325-16.484 15.326v19a2.5 2.5 0 0 1 -2.5 2.503z"/><path d="m173.213 210a2.5 2.5 0 0 1 -.771-4.878l18.37-5.958c6.96-3.183 5.515-10.847 5.45-11.174a2.5 2.5 0 1 1 4.9-.98c.827 4.137.129 12.968-8.436 16.775-.08.035-.162.066-.244.093l-18.5 6a2.5 2.5 0 0 1 -.769.122z"/><path d="m190.716 256a2.5 2.5 0 0 1 -2.458-2.972c4.9-25.5 5.947-55.313 5.957-55.611a2.5 2.5 0 1 1 5 .166c-.01.3-1.064 30.5-6.044 56.389a2.5 2.5 0 0 1 -2.455 2.028z"/><path d="m132.714 133.027a26.124 26.124 0 0 1 -10.881-2.374 28.47 28.47 0 0 1 -11.694-9.184 29.367 29.367 0 0 0 -4.438-5.124c-6-5.32-19.952-19.4-19.952-35.2a27.791 27.791 0 0 1 4.363-15.759 4.723 4.723 0 0 0 .609-3.726 49.794 49.794 0 0 1 -1.265-11.16c0-25.64 19.405-46.5 43.257-46.5s43.258 20.86 43.258 46.5a49.819 49.819 0 0 1 -1.265 11.163 4.724 4.724 0 0 0 .61 3.726 27.8 27.8 0 0 1 4.362 15.759c0 15.807-13.967 29.892-19.971 35.214a29.18 29.18 0 0 0 -4.418 5.107 28.486 28.486 0 0 1 -11.695 9.184 26.122 26.122 0 0 1 -10.88 2.374zm-.001-124.027c-21.095 0-38.257 18.617-38.257 41.5a44.811 44.811 0 0 0 1.137 10.041 9.8 9.8 0 0 1 -1.326 7.629 22.913 22.913 0 0 0 -3.518 12.978c0 13.767 12.777 26.585 18.27 31.456a34.172 34.172 0 0 1 5.2 5.977 23.594 23.594 0 0 0 9.694 7.526 21.117 21.117 0 0 0 17.6 0 23.591 23.591 0 0 0 9.695-7.527 34.015 34.015 0 0 1 5.182-5.959c5.5-4.874 18.288-17.7 18.288-31.473a22.915 22.915 0 0 0 -3.517-12.978 9.8 9.8 0 0 1 -1.328-7.629 44.786 44.786 0 0 0 1.138-10.041c0-22.883-17.162-41.5-38.258-41.5z"/><path d="m177.068 81.024a2.5 2.5 0 0 1 -2.492-2.3 22.072 22.072 0 0 0 -3.416-10.551 9.8 9.8 0 0 1 -1.327-7.628 44.772 44.772 0 0 0 1.138-10.045c0-.826-.03-1.707-.095-2.771a2.5 2.5 0 0 1 .909-2.082c5.387-4.429 9.86-3.689 12.661-2.288a9.318 9.318 0 0 1 4.957 6.05 15.076 15.076 0 0 1 -1.973 11.263 4.051 4.051 0 0 0 -.575 3.356c.844 2.847 1.419 7.024-.628 10.766-1.592 2.907-4.44 4.97-8.465 6.132a2.491 2.491 0 0 1 -.694.098zm-1.132-32.252c.023.612.035 1.178.035 1.728a49.812 49.812 0 0 1 -1.265 11.163 4.724 4.724 0 0 0 .61 3.726 25.856 25.856 0 0 1 3.806 9.616 6.8 6.8 0 0 0 2.719-2.612c1.221-2.232.794-5.008.22-6.944a9.033 9.033 0 0 1 1.186-7.516 9.992 9.992 0 0 0 1.329-7.22 4.328 4.328 0 0 0 -2.366-2.881c-.733-.367-2.839-1.422-6.274.94z"/><path d="m88.359 81.024a2.484 2.484 0 0 1 -.693-.1c-4.026-1.16-6.874-3.224-8.466-6.13-2.048-3.741-1.472-7.919-.629-10.766a4.05 4.05 0 0 0 -.571-3.356 15.076 15.076 0 0 1 -1.974-11.263 9.318 9.318 0 0 1 4.957-6.05c2.8-1.4 7.273-2.141 12.662 2.287a2.5 2.5 0 0 1 .907 2.084c-.064 1.061-.094 1.941-.094 2.77a44.8 44.8 0 0 0 1.137 10.041 9.8 9.8 0 0 1 -1.326 7.629 22.086 22.086 0 0 0 -3.416 10.55 2.5 2.5 0 0 1 -2.492 2.3zm-2.953-33.746a4.628 4.628 0 0 0 -2.189.554 4.322 4.322 0 0 0 -2.365 2.881 9.987 9.987 0 0 0 1.328 7.22 9.033 9.033 0 0 1 1.186 7.516c-.574 1.936-1 4.712.22 6.945a6.8 6.8 0 0 0 2.72 2.611 25.838 25.838 0 0 1 3.805-9.616 4.72 4.72 0 0 0 .61-3.726 49.781 49.781 0 0 1 -1.265-11.163c0-.551.011-1.117.035-1.728a7.242 7.242 0 0 0 -4.085-1.494z"/><path d="m141.717 64.95a5.747 5.747 0 0 1 -4.362-1.749c-2.739-2.91-1.554-8-1.288-8.986a2.5 2.5 0 0 1 4.833 1.285c-.394 1.511-.437 3.7.1 4.271.2.206.843.232 1.647.069a47.433 47.433 0 0 0 6.221-2.031c3.847-1.432 8.207-3.054 12.575-3.473a2.5 2.5 0 0 1 .477 4.978c-3.716.355-7.749 1.857-11.308 3.182a50.476 50.476 0 0 1 -6.964 2.242 9.715 9.715 0 0 1 -1.931.212z"/><path d="m123.71 64.95a9.624 9.624 0 0 1 -1.927-.208 50.375 50.375 0 0 1 -6.966-2.243c-3.558-1.324-7.591-2.826-11.307-3.181a2.5 2.5 0 0 1 .477-4.978c4.368.418 8.728 2.041 12.575 3.473a47.394 47.394 0 0 0 6.222 2.031c.8.163 1.451.137 1.647-.07.536-.57.493-2.8.1-4.264a2.5 2.5 0 1 1 4.829-1.295c.266.99 1.452 6.076-1.288 8.986a5.749 5.749 0 0 1 -4.362 1.749z"/><path d="m149.714 110.456a7.629 7.629 0 0 1 -5.487-2.445c-.989-.988-2.963-.475-5.86.418a19.23 19.23 0 0 1 -5.5 1.134 2.5 2.5 0 0 1 0-5 16.045 16.045 0 0 0 4.023-.912c3.421-1.054 7.678-2.368 10.869.825 1.527 1.525 2.839.9 3.333.56a2.48 2.48 0 0 1 3.481.514 2.519 2.519 0 0 1 -.519 3.513 7.5 7.5 0 0 1 -4.34 1.393z"/><path d="m115.713 110.456a7.5 7.5 0 0 1 -4.343-1.393 2.5 2.5 0 0 1 2.968-4.023c.5.341 1.808.955 3.326-.564 3.192-3.192 7.449-1.879 10.87-.825a16.054 16.054 0 0 0 4.023.912 2.5 2.5 0 0 1 0 5 19.216 19.216 0 0 1 -5.5-1.134c-2.9-.893-4.874-1.4-5.861-.418a7.627 7.627 0 0 1 -5.483 2.445z"/><path d="m190.713 256h-104.687a2.5 2.5 0 0 1 -2.476-2.156c-7.227-51.98-5.314-70.7-2.437-77.251 3.963-9.021 4.942-29.987 2.685-57.52a2.5 2.5 0 0 1 4.413-1.8 5.558 5.558 0 0 1 .863 1.411c31.615 75.435 85.386 88.971 107.037 91.29a2.5 2.5 0 0 1 2.227 2.672 379.579 379.579 0 0 1 -5.17 41.329 2.5 2.5 0 0 1 -2.455 2.025zm-102.507-5h100.433c2.34-12.789 3.733-26.352 4.528-36.34-30.112-3.841-56.544-18.842-78.591-44.615a185.926 185.926 0 0 1 -24.931-38.088c.766 16.3.559 36.373-3.954 46.647-3.632 8.27-2.736 33.941 2.515 72.396z"/><path d="m177.216 233a2.543 2.543 0 0 1 -.274-.015c-23.113-2.521-44.8-14.476-62.719-34.571a132.113 132.113 0 0 1 -20.284-29.876 2.5 2.5 0 0 1 4.548-2.077c.255.558 26.091 55.782 79 61.554a2.5 2.5 0 0 1 -.268 4.985z"/><path d="m86.026 256h-12.679a2.5 2.5 0 0 1 -2.439-1.952c-6.141-27.313-21.66-66.842-31.433-83.938-9.325-16.31-11.82-37.381-12.475-48.487-.311-5.248 2.743-10.313 7.969-13.217a58.738 58.738 0 0 1 41.882-5.785c6.5 1.457 11.043 6.161 11.58 11.984 1.644 17.831 3.475 49.855-2.738 64-3.7 8.423-2.7 34.9 2.811 74.552a2.5 2.5 0 0 1 -2.478 2.843zm-10.69-5h7.823c-6.766-49.826-4.87-67.977-2.046-74.407 5.976-13.6 3.625-47.56 2.337-61.529-.334-3.622-3.354-6.591-7.7-7.564a53.805 53.805 0 0 0 -38.35 5.276c-3.532 1.963-5.6 5.239-5.407 8.551.627 10.673 3.007 30.873 11.823 46.302 9.718 16.999 25.005 55.735 31.52 83.371z"/><path d="m69.135 179.965a2.416 2.416 0 0 1 -.337-.023 2.5 2.5 0 0 1 -2.144-2.811c1.807-13.413 1.366-31.169-1.071-43.179a2.5 2.5 0 1 1 4.9-.994c2.576 12.694 3.029 30.714 1.126 44.84a2.5 2.5 0 0 1 -2.474 2.167z"/><path d="m151.655 72.809c-4.723 0-8.842-3.009-9.644-7.364a8.5 8.5 0 0 1 .38-4.4 2.5 2.5 0 0 1 1.655-1.553c1.429-.415 3.076-1.028 4.82-1.676 2.085-.775 4.447-1.654 6.831-2.331a2.5 2.5 0 0 1 1.9.219 8.8 8.8 0 0 1 4.481 6.052 8.68 8.68 0 0 1 -1.87 7.064 10.784 10.784 0 0 1 -6.5 3.8 11.3 11.3 0 0 1 -2.053.189zm-4.778-8.969a3.234 3.234 0 0 0 .052.7c.416 2.262 3.047 3.681 5.869 3.163a5.79 5.79 0 0 0 3.5-2.011 3.756 3.756 0 0 0 .858-3.035 3.543 3.543 0 0 0 -1.2-2.037c-1.815.564-3.6 1.23-5.347 1.877-1.298.484-2.545.948-3.732 1.343z"/><path d="m113.791 72.811a11.432 11.432 0 0 1 -2.068-.19 10.782 10.782 0 0 1 -6.5-3.8 8.681 8.681 0 0 1 -1.87-7.064 8.8 8.8 0 0 1 4.481-6.052 2.5 2.5 0 0 1 1.9-.219c2.384.677 4.747 1.556 6.831 2.331 1.744.648 3.391 1.261 4.82 1.676a2.5 2.5 0 0 1 1.655 1.553 8.488 8.488 0 0 1 .38 4.4 8.678 8.678 0 0 1 -4.263 5.934 10.546 10.546 0 0 1 -5.366 1.431zm-4.319-12.19a3.535 3.535 0 0 0 -1.2 2.036 3.756 3.756 0 0 0 .856 3.036 6.066 6.066 0 0 0 7.49 1.378 3.758 3.758 0 0 0 1.882-2.531 3.283 3.283 0 0 0 .051-.7c-1.187-.4-2.434-.859-3.732-1.342-1.742-.647-3.533-1.313-5.347-1.877z"/><path d="m149.741 110.445a7.774 7.774 0 0 1 -5.514-2.434 1.9 1.9 0 0 0 -1.456-.526 2.5 2.5 0 0 1 -2.162-3.65 47.863 47.863 0 0 0 3.631-9.813 3.462 3.462 0 0 1 2.807-2.574 3.506 3.506 0 0 1 3.515 1.579 21.394 21.394 0 0 1 3.2 15.026 2.5 2.5 0 0 1 -1.682 2.007 7.37 7.37 0 0 1 -2.339.385zm-1.979-5.969a3.434 3.434 0 0 0 1.237.842 16.283 16.283 0 0 0 -1-6.307c-.45 1.372-1 2.86-1.651 4.38a6.594 6.594 0 0 1 1.416 1.085z"/><path d="m115.687 110.445a7.379 7.379 0 0 1 -2.339-.387 2.5 2.5 0 0 1 -1.681-2.007 21.4 21.4 0 0 1 3.2-15.024 3.506 3.506 0 0 1 3.514-1.581 3.466 3.466 0 0 1 2.809 2.574 47.771 47.771 0 0 0 3.631 9.814 2.5 2.5 0 0 1 -2.161 3.649 1.885 1.885 0 0 0 -1.457.528 7.773 7.773 0 0 1 -5.516 2.434zm1.743-11.434a16.283 16.283 0 0 0 -1 6.307 3.451 3.451 0 0 0 1.237-.842 6.594 6.594 0 0 1 1.416-1.085c-.658-1.52-1.204-3.008-1.653-4.38z"/></svg>