<svg id="Capa_1" enable-background="new 0 0 512 512" height="512" viewBox="0 0 512 512" width="512" xmlns="http://www.w3.org/2000/svg"><g><g><path d="m512 105c0 4.2-1.8 8.399-5.099 11.1l-257.701 228.9c-2.699 2.699-6.299 3.9-9.901 3.9-2.399 0-5.099-.601-7.5-2.1l-22.798-12.6c-3.9-2.401-6.601-6.601-7.202-11.102-.599-3.3-2.098-6.599-4.199-8.699s-5.4-3.6-8.701-3.9c-4.499-.899-8.699-3.6-11.1-7.5l-12.9-22.8c-2.999-5.7-2.401-12.599 2.1-17.399l228.901-257.701c2.699-3.299 6.9-5.099 11.1-5.099l30 75z" fill="#f0f7ff"/></g><path d="m437 75-.008-.021-239.408 239.409c.005.005.012.006.017.012 2.1 2.1 3.599 5.399 4.199 8.699.601 4.501 3.302 8.701 7.201 11.101l22.799 12.6c2.4 1.499 5.101 2.1 7.499 2.1 3.602 0 7.201-1.202 9.901-3.901l257.7-228.899c3.302-2.701 5.1-6.9 5.1-11.1z" fill="#dfe7f4"/><g id="Sword_2_"><g><path d="m75 512h-60c-8.291 0-15-6.709-15-15v-60c0-8.291 6.709-15 15-15h11.484l107.41-107.41c5.859-5.859 15.352-5.859 21.211 0l42.305 42.305c5.859 5.859 5.859 15.352 0 21.211l-107.41 107.41v11.484c0 8.291-6.709 15-15 15z" fill="#5e79bc"/></g></g><path d="m90.001 485.515 107.41-107.41c5.86-5.86 5.859-15.352 0-21.211l-21.167-21.167-171.864 171.865c2.715 2.723 6.467 4.409 10.62 4.407h60.001c8.29.001 15-6.708 15-15z" fill="#47568c"/><g><path d="m163.689 359.399c-3.838 0-7.676-1.465-10.605-4.395l-82.793-82.808c-4.57-4.556-5.684-11.528-2.813-17.3l42.305-84.888c2.461-4.951 7.471-8.145 12.979-8.306 5.215.19 10.723 2.754 13.447 7.559l67.852 118.857c2.842 5.039 2.549 11.25-.791 15.996-3.34 4.717-8.965 7.119-14.766 6.182-4.248-.718-9.023.835-12.393 4.189v.015c-5.479 5.493-5.918 14.37-.967 20.215 5.186 6.138 4.629 15.278-1.289 20.728-2.9 2.638-6.533 3.956-10.166 3.956zm1.817-55.503h.293z" fill="#ffe14d"/></g><g><path d="m250.408 446.104c-3.896 0-7.734-1.509-10.605-4.395l-82.5-82.5c-5.654-5.654-5.889-14.751-.498-20.684 5.332-5.918 14.443-6.606 20.625-1.523 5.684 4.673 14.707 4.219 20.068-1.113 3.369-3.369 4.951-8.027 4.219-12.422-.938-5.698 1.465-11.44 6.211-14.751 4.688-3.325 10.986-3.618 15.967-.762l118.857 67.822c4.805 2.754 7.705 7.925 7.559 13.447-.176 5.537-3.369 10.532-8.32 13.008l-84.902 42.305c-2.11 1.055-4.396 1.568-6.681 1.568z" fill="#fb3"/></g><g><g><path d="m186.717 370.21c-10.078 0-20.156-3.311-28.33-10.005l-5.273-5.186c-15.82-18.589-14.648-45.293 1.787-61.729 18.27-18.322 47.103-16.655 63.779-.015 6.65 6.665 11.25 15.908 12.656 25.43 2.256 13.872-2.462 28.198-12.627 38.379-8.672 8.702-20.332 13.126-31.992 13.126z" fill="#ff9580"/></g></g><path d="m231.337 318.706c-1.405-9.518-6.005-18.756-12.65-25.421l-63.638 63.638 3.338 3.281c8.174 6.695 18.252 10.005 28.33 10.005 11.661 0 23.321-4.423 31.992-13.125 10.166-10.179 14.883-24.506 12.628-38.378z" fill="#f66"/><path d="m497 0h-90v105h105v-90c0-8.401-6.599-15-15-15z" fill="#dfe7f4"/><path d="m507.634 4.338-100.633 100.633v.029h104.999v-90.001c0-4.208-1.657-7.96-4.366-10.661z" fill="#c7cfe1"/></g></svg>