<?xml version="1.0" encoding="iso-8859-1"?>
<!-- Generator: Adobe Illustrator 19.0.0, SVG Export Plug-In . SVG Version: 6.00 Build 0)  -->
<svg version="1.1" id="Layer_1" xmlns="http://www.w3.org/2000/svg" xmlns:xlink="http://www.w3.org/1999/xlink" x="0px" y="0px"
	 viewBox="0 0 512 512" style="enable-background:new 0 0 512 512;" xml:space="preserve">
<g>
	<circle style="fill:#FBB429;" cx="256" cy="447.174" r="54.627"/>
	<path style="fill:#FBB429;" d="M225.165,331.611h61.671c13.138,0,23.788-10.65,23.788-23.788V33.987
		c0-13.138-10.65-23.788-23.788-23.788h-61.671c-13.138,0-23.788,10.65-23.788,23.788v273.837
		C201.377,320.961,212.027,331.611,225.165,331.611z"/>
</g>
<g>
	<path style="fill:#4D4D4D;" d="M256,512c-35.743,0-64.822-29.079-64.822-64.822s29.079-64.822,64.822-64.822
		s64.822,29.079,64.822,64.822S291.743,512,256,512z M256,402.755c-24.495,0-44.424,19.928-44.424,44.424
		s19.928,44.423,44.424,44.423s44.424-19.928,44.424-44.424S280.495,402.755,256,402.755z"/>
	<path style="fill:#4D4D4D;" d="M286.835,341.811h-61.672c-18.74,0-33.986-15.247-33.986-33.987V33.986
		C191.178,15.246,206.425,0,225.165,0h61.672c18.74,0,33.986,15.246,33.986,33.986v273.837
		C320.822,326.564,305.575,341.811,286.835,341.811z M225.165,20.398c-7.492,0-13.587,6.096-13.587,13.587v273.837
		c0,7.493,6.096,13.588,13.587,13.588h61.672c7.492,0,13.587-6.096,13.587-13.588V33.986c0-7.492-6.096-13.587-13.587-13.587
		H225.165z"/>
	<path style="fill:#4D4D4D;" d="M233.562,309.036c-5.632,0-10.199-4.567-10.199-10.199v-128.51c0-5.632,4.567-10.199,10.199-10.199
		c5.632,0,10.199,4.567,10.199,10.199v128.51C243.761,304.469,239.194,309.036,233.562,309.036z"/>
	<path style="fill:#4D4D4D;" d="M233.562,149.928c-5.632,0-10.199-4.567-10.199-10.199v-8.159c0-5.632,4.567-10.199,10.199-10.199
		c5.632,0,10.199,4.567,10.199,10.199v8.159C243.761,145.361,239.194,149.928,233.562,149.928z"/>
</g>
<g>
</g>
<g>
</g>
<g>
</g>
<g>
</g>
<g>
</g>
<g>
</g>
<g>
</g>
<g>
</g>
<g>
</g>
<g>
</g>
<g>
</g>
<g>
</g>
<g>
</g>
<g>
</g>
<g>
</g>
</svg>
