<?xml version="1.0" encoding="iso-8859-1"?>
<!-- Generator: Adobe Illustrator 19.0.0, SVG Export Plug-In . SVG Version: 6.00 Build 0)  -->
<svg version="1.1" id="Layer_1" xmlns="http://www.w3.org/2000/svg" xmlns:xlink="http://www.w3.org/1999/xlink" x="0px" y="0px"
	 viewBox="0 0 512 512" style="enable-background:new 0 0 512 512;" xml:space="preserve">
<polygon style="fill:#F2484B;" points="501.719,155.245 356.755,155.245 356.755,10.281 155.245,10.281 155.245,155.245 
	10.281,155.245 10.281,356.755 155.245,356.755 155.245,501.719 356.755,501.719 356.755,356.755 501.719,356.755 "/>
<path d="M356.755,512h-201.51c-5.678,0-10.281-4.603-10.281-10.281V367.036H10.281C4.603,367.036,0,362.433,0,356.755v-201.51
	c0-5.678,4.603-10.281,10.281-10.281h134.683V10.281C144.964,4.603,149.567,0,155.245,0h201.51c5.678,0,10.281,4.603,10.281,10.281
	v134.683h134.683c5.678,0,10.281,4.603,10.281,10.281v201.51c0,5.678-4.603,10.281-10.281,10.281H367.036v134.683
	C367.036,507.397,362.433,512,356.755,512z M165.526,491.438h180.948V356.755c0-5.678,4.603-10.281,10.281-10.281h134.683V165.526
	H356.755c-5.678,0-10.281-4.603-10.281-10.281V20.562H165.526v134.683c0,5.678-4.603,10.281-10.281,10.281H20.562v180.948h134.683
	c5.678,0,10.281,4.603,10.281,10.281V491.438z"/>
<path d="M218.988,483.213h-3.084c-5.678,0-10.281-4.603-10.281-10.281c0-5.678,4.603-10.281,10.281-10.281h3.084
	c5.678,0,10.281,4.603,10.281,10.281C229.269,478.61,224.666,483.213,218.988,483.213z"/>
<path d="M327.968,483.213h-76.08c-5.678,0-10.281-4.603-10.281-10.281c0-5.678,4.603-10.281,10.281-10.281h76.08
	c5.678,0,10.281,4.603,10.281,10.281C338.249,478.61,333.646,483.213,327.968,483.213z"/>
<g>
</g>
<g>
</g>
<g>
</g>
<g>
</g>
<g>
</g>
<g>
</g>
<g>
</g>
<g>
</g>
<g>
</g>
<g>
</g>
<g>
</g>
<g>
</g>
<g>
</g>
<g>
</g>
<g>
</g>
</svg>
