<svg height="512" viewBox="0 0 512 512" width="512" xmlns="http://www.w3.org/2000/svg"><g id="filled_outline" data-name="filled outline"><path d="m440 488h-368l-16-24 16-24v-90.19a320 320 0 0 1 135.461-261.43l.539-.38h96l.539.38a320 320 0 0 1 135.461 261.43v82.19l16 32z" fill="#8dc79d"/><path d="m160 424h312l16 64h-344z" fill="#e2982b"/><path d="m192 360h248l16 64h-280z" fill="#ea9d2d"/><path d="m168 24 40 64h96l48-64z" fill="#8dc79d"/><path d="m224 488h-80l16-64h48z" fill="#ecaa3c"/><path d="m256 424h-80l16-64h48z" fill="#f3af3e"/><path d="m112 370.383a8 8 0 0 1 -8-8v-14a304.559 304.559 0 0 1 8.216-70.226 8 8 0 0 1 15.568 3.7 288.466 288.466 0 0 0 -7.784 66.521v14a8 8 0 0 1 -8 8.005z" fill="#85bc94"/><path d="m112 410.383a8 8 0 0 1 -8-8v-8a8 8 0 0 1 16 0v8a8 8 0 0 1 -8 8z" fill="#85bc94"/><path d="m296 224v-7.2a32.828 32.828 0 0 0 -32-32.775v-13.358h-16v13.353a32.79 32.79 0 0 0 -9.576 63.888l30.092 10.03a16.8 16.8 0 0 1 -5.311 32.729h-14.405a16.814 16.814 0 0 1 -16.8-16.796v-7.2h-16v7.2a32.828 32.828 0 0 0 32 32.776v13.353h16v-13.353a32.79 32.79 0 0 0 9.576-63.888l-30.092-10.03a16.8 16.8 0 0 1 5.316-32.729h14.41a16.814 16.814 0 0 1 16.79 16.8v7.2z" fill="#5e8569"/><path d="m316.775 96h-108.775a8 8 0 0 1 0-16h108.775a98.1 98.1 0 0 0 76.978-37 8 8 0 1 1 12.494 10 114.022 114.022 0 0 1 -89.472 43z" fill="#55785f"/><path d="m320 328-6.89 13.78a25.339 25.339 0 0 1 -11.33 11.33l-13.78 6.89 13.78 6.89a25.339 25.339 0 0 1 11.33 11.33l6.89 13.78 6.89-13.78a25.339 25.339 0 0 1 11.33-11.33l13.78-6.89-13.78-6.89a25.339 25.339 0 0 1 -11.33-11.33z" fill="#fece2f"/><path d="m448 360-6.89 13.78a25.339 25.339 0 0 1 -11.33 11.33l-13.78 6.89 13.78 6.89a25.339 25.339 0 0 1 11.33 11.33l6.89 13.78 6.89-13.78a25.339 25.339 0 0 1 11.33-11.33l13.78-6.89-13.78-6.89a25.339 25.339 0 0 1 -11.33-11.33z" fill="#fece2f"/><path d="m376 264-6.89 13.78a25.339 25.339 0 0 1 -11.33 11.33l-13.78 6.89 13.78 6.89a25.339 25.339 0 0 1 11.33 11.33l6.89 13.78 6.89-13.78a25.339 25.339 0 0 1 11.33-11.33l13.78-6.89-13.78-6.89a25.339 25.339 0 0 1 -11.33-11.33z" fill="#fece2f"/><path d="m56 72h16v16h-16z" fill="#fbb540"/><path d="m56 120h16v16h-16z" fill="#fbb540"/><path d="m48 184h16v16h-16z" fill="#f3af3e"/><path d="m48 216h16v16h-16z" fill="#f3af3e"/><path d="m64 200h16v16h-16z" fill="#f3af3e"/><path d="m32 200h16v16h-16z" fill="#f3af3e"/><g fill="#fbb540"><path d="m80 96h16v16h-16z"/><path d="m32 96h16v16h-16z"/><path d="m440 112h16v16h-16z"/><path d="m440 160h16v16h-16z"/><path d="m464 136h16v16h-16z"/><path d="m416 136h16v16h-16z"/></g><path d="m65.344 492.438a8 8 0 0 0 6.656 3.562h416a8 8 0 0 0 7.761-9.94l-16-64a8 8 0 0 0 -7.761-6.06h-11.056l1.1-2.2a17.443 17.443 0 0 1 7.753-7.752l13.78-6.891a8 8 0 0 0 0-14.31l-13.777-6.893a17.446 17.446 0 0 1 -7.752-7.752l-6.89-13.78a8 8 0 0 0 -7.158-4.422v-2.19a328.481 328.481 0 0 0 -120.834-254.281 113.937 113.937 0 0 0 79.081-42.529 8 8 0 1 0 -12.494-10 98.063 98.063 0 0 1 -73.709 36.94l38.356-51.14a8 8 0 0 0 -6.4-12.8h-184a8 8 0 0 0 -6.784 12.24l36.034 57.66a328.441 328.441 0 0 0 -133.25 263.91v87.768l-14.656 21.984a8 8 0 0 0 0 8.876zm88.902-12.438 12-48h35.508l12 48zm32-64 12-48h35.508l12 48zm279.508 16 12 48h-247.508l-12-48zm-17.754-54.123a33.558 33.558 0 0 0 14.124 14.123 33.558 33.558 0 0 0 -14.124 14.123 33.558 33.558 0 0 0 -14.124-14.123 33.558 33.558 0 0 0 14.124-14.123zm-13.81-8.146-.235.471a17.443 17.443 0 0 1 -7.753 7.752l-13.78 6.891a8 8 0 0 0 0 14.31l13.781 6.891a17.446 17.446 0 0 1 7.752 7.752l1.1 2.2h-172.809l-12-48h35.865l12.092 6.046a17.446 17.446 0 0 1 7.752 7.752l6.89 13.78a8 8 0 0 0 14.31 0l6.89-13.78a17.443 17.443 0 0 1 7.753-7.752l12.091-6.044h79.867zm-128.314-9.731a33.558 33.558 0 0 0 14.124-14.123 33.558 33.558 0 0 0 14.124 14.123 33.558 33.558 0 0 0 -14.124 14.123 33.558 33.558 0 0 0 -14.124-14.123zm-123.442-328h153.566l-36 48h-87.566zm-103.778 412.438a8 8 0 0 0 1.344-4.438v-90.19a312.4 312.4 0 0 1 130.547-253.81h90.906a312.412 312.412 0 0 1 130.547 253.81v2.19h-78.111l-12.089-6.046a17.446 17.446 0 0 1 -7.752-7.752l-6.89-13.78a8 8 0 0 0 -14.31 0l-6.89 13.78a17.443 17.443 0 0 1 -7.753 7.752l-12.094 6.046h-94.111a8 8 0 0 0 -7.761 6.06l-14.485 57.94h-9.754a8 8 0 0 0 -7.761 6.06l-14.485 57.94h-61.473l-10.666-16z"/><path d="m112 370.383a8 8 0 0 0 8-8v-14a288.466 288.466 0 0 1 7.784-66.53 8 8 0 0 0 -15.568-3.7 304.559 304.559 0 0 0 -8.216 70.225v14a8 8 0 0 0 8 8.005z"/><path d="m112 410.383a8 8 0 0 0 8-8v-8a8 8 0 0 0 -16 0v8a8 8 0 0 0 8 8z"/><path d="m248 306.647v13.353h16v-13.353a32.79 32.79 0 0 0 9.576-63.888l-30.092-10.03a16.8 16.8 0 0 1 5.316-32.729h14.41a16.814 16.814 0 0 1 16.79 16.8v7.2h16v-7.2a32.828 32.828 0 0 0 -32-32.775v-13.358h-16v13.353a32.79 32.79 0 0 0 -9.576 63.888l30.092 10.03a16.8 16.8 0 0 1 -5.311 32.729h-14.405a16.814 16.814 0 0 1 -16.8-16.796v-7.2h-16v7.2a32.828 32.828 0 0 0 32 32.776z"/><path d="m340.422 303.155 13.781 6.891a17.446 17.446 0 0 1 7.752 7.752l6.89 13.78a8 8 0 0 0 14.31 0l6.89-13.78a17.443 17.443 0 0 1 7.753-7.752l13.78-6.891a8 8 0 0 0 0-14.31l-13.778-6.891a17.446 17.446 0 0 1 -7.752-7.752l-6.89-13.78a8 8 0 0 0 -14.31 0l-6.89 13.78a17.443 17.443 0 0 1 -7.753 7.752l-13.78 6.891a8 8 0 0 0 0 14.31zm35.578-21.278a33.558 33.558 0 0 0 14.124 14.123 33.558 33.558 0 0 0 -14.124 14.123 33.558 33.558 0 0 0 -14.124-14.123 33.558 33.558 0 0 0 14.124-14.123z"/><path d="m56 72h16v16h-16z"/><path d="m56 120h16v16h-16z"/><path d="m48 184h16v16h-16z"/><path d="m48 216h16v16h-16z"/><path d="m64 200h16v16h-16z"/><path d="m32 200h16v16h-16z"/><path d="m80 96h16v16h-16z"/><path d="m32 96h16v16h-16z"/><path d="m440 112h16v16h-16z"/><path d="m440 160h16v16h-16z"/><path d="m464 136h16v16h-16z"/><path d="m416 136h16v16h-16z"/></g></svg>