<svg id="Layer_1" enable-background="new 0 0 512 512" height="512" viewBox="0 0 512 512" width="512" xmlns="http://www.w3.org/2000/svg"><g><g fill="#8288cb"><path d="m124.475 342.975-20-10-23.475 10-12.5 80.762-4.47 28.88c-4.221 27.272 16.874 51.883 44.47 51.883h76.737v-80.763z"/><path d="m175.237 292.213 80.763-30v-80.763l-80.763-20-69.237 20-12.5 80.763h.975z"/><path d="m336.763 322.975-80.763 20-20 40.381 20 40.381 70.763 30 60.762-30 20-37.194-20-43.568z"/></g><g fill="#9ea2e3"><path d="m431 342.975-20.475-10-23 10v80.762l30 10 25.975-10z"/><path d="m406 181.45-69.237-20-80.763 20v80.763h-80.763l-50.762 80.762v80.762h60.762 70.763v-80.762h80.763l80.762-80.762h.975z"/></g><g fill="#d4d4ff"><path d="m431 342.975-12.5-80.762h-.975-80.762v80.762z"/><path d="m93.5 262.213-12.5 80.762h13.475 30 50.762v-80.762h-80.762z"/><path d="m447.97 452.617-4.47-28.88c-24.071 0-93.366 0-116.737 0v80.763h76.737c27.596 0 48.691-24.611 44.47-51.883z"/></g><g><g><g><path d="m256 161.45-50.763 20 12.171 59.971h59.384l29.971-59.971z" fill="#ff8e9e"/></g><path d="m205.237 181.45v86.97c0 4.195.887 8.281 2.528 12.028h39.026v-39.026c-18.969-15.327-33.588-35.967-41.554-59.972z" fill="#ea5b70"/></g><g><g><path d="m306.763 181.45-59.971 59.971 26.998 26.999h32.973z" fill="#55dafe"/></g><path d="m207.765 280.448c1.954 4.462 4.981 8.444 8.905 11.536l20.763 16.361c5.445 4.291 12.006 6.437 18.567 6.437s13.122-2.146 18.567-6.437l20.763-16.361c7.219-5.688 11.433-14.372 11.433-23.563-22.397-3.758-42.938-13.236-59.971-26.999z" fill="#2ed0fc"/></g></g><g><path d="m427.225 7.5h-24.85c-20.586 0-37.275 16.689-37.275 37.275v24.85h-49.4v-24.85c0-20.586-16.689-37.275-37.275-37.275h-13.325c-7.326 0-14.166 3.668-18.22 9.77l-13.305 20.026v107.55l13.593 25.135c3.821 7.066 11.208 11.469 19.241 11.469h17.165 143.65c20.586 0 37.275-16.689 37.275-37.275v-99.4c.001-20.586-16.688-37.275-37.274-37.275z" fill="#d4d4ff"/><path d="m246.3 144.175v-104.4c0-20.586 6.689-32.275 27.275-32.275h-40c-20.586 0-37.275 16.688-37.275 37.275v24.85h-49.4v-24.85c0-20.586-16.688-37.275-37.275-37.275h-24.85c-20.587 0-37.275 16.688-37.275 37.275v99.4c0 20.587 16.688 37.275 37.275 37.275h198.8c-20.586 0-37.275-16.688-37.275-37.275z" fill="#9ea2e3"/></g><g fill="#ff8e9e"><path d="m176.443 118.483c-16.212 0-29.355 10.466-29.355 23.377s13.142 23.376 29.355 23.376 29.355-10.466 29.355-23.376-13.142-23.377-29.355-23.377z"/><path d="m335.557 118.483c-16.212 0-29.355 10.466-29.355 23.377s13.143 23.376 29.355 23.376 29.355-10.466 29.355-23.376-13.143-23.377-29.355-23.377z"/></g><g><path d="m301 386.543-45-12.043c-16.394 0-31.762 4.385-45 12.043v117.957h135v-40c0-33.312-18.1-62.396-45-77.957z" fill="#ce857a"/><path d="m211 386.543-20 67.194 20 50.763h135c-65.789-5.953-120.276-53.562-135-117.957z" fill="#bd7669"/><path d="m166 464.5v40h45v-117.957c-26.9 15.561-45 44.645-45 77.957z" fill="#ac6757"/><path d="m256 374.5v130h45v-117.957c-13.238-7.658-28.606-12.043-45-12.043z" fill="#bd7669"/><path d="m256 464.412v40.088h45v-11.139c-16.681-6.961-31.896-16.8-45-28.949z" fill="#ac6757"/></g><g><path d="m427.225 0h-24.85c-24.689 0-44.775 20.086-44.775 44.775v17.35h-34.4v-17.35c0-24.689-20.086-44.775-44.774-44.775h-44.851c-24.689 0-44.775 20.086-44.775 44.775v17.35h-34.4v-17.35c0-24.689-20.086-44.775-44.775-44.775h-24.85c-24.689 0-44.775 20.086-44.775 44.775v30.375c0 4.143 3.357 7.5 7.5 7.5s7.5-3.357 7.5-7.5v-30.375c0-16.418 13.357-29.775 29.775-29.775h24.85c16.418 0 29.775 13.357 29.775 29.775v24.85c0 4.143 3.357 7.5 7.5 7.5h49.4c4.143 0 7.5-3.357 7.5-7.5v-24.85c0-16.418 13.357-29.775 29.775-29.775h44.851c16.418 0 29.774 13.357 29.774 29.775v24.85c0 4.143 3.357 7.5 7.5 7.5h49.4c4.143 0 7.5-3.357 7.5-7.5v-24.85c0-16.418 13.357-29.775 29.775-29.775h24.85c16.418 0 29.775 13.357 29.775 29.775v99.4c0 16.418-13.357 29.774-29.775 29.774h-342.45c-16.418.001-29.775-13.356-29.775-29.774v-39.025c0-4.143-3.357-7.5-7.5-7.5s-7.5 3.357-7.5 7.5v39.024c0 24.689 20.086 44.775 44.775 44.775h12.475l-40.632 262.522c-4.965 32.112 19.983 60.529 51.882 60.529h295c31.866 0 56.851-28.383 51.882-60.53l-8.771-56.665c-.634-4.094-4.471-6.89-8.56-6.265-4.093.634-6.897 4.466-6.265 8.56l2.962 19.138h-39.724v-65.763h29.545l2.627 16.978c.574 3.704 3.767 6.354 7.402 6.354.382 0 .769-.029 1.157-.089 4.093-.634 6.897-4.466 6.265-8.56l-27.27-176.208h12.474c24.689 0 44.775-20.086 44.775-44.774v-99.4c.001-24.69-20.085-44.776-44.774-44.776zm-17.475 254.713h-95.487v-65.763h85.309zm-110.487-55.155v68.862c0 6.938-3.125 13.379-8.574 17.673l-20.764 16.36c-8.197 6.462-19.649 6.461-27.851 0l-20.763-16.36c-1.622-1.278-3.032-2.749-4.221-4.363zm-10.608-10.608-75.918 75.918v-75.918zm-76.627 108.924 20.763 16.36c13.662 10.768 32.752 10.771 46.418 0l20.763-16.36c8.742-6.888 13.881-17.096 14.255-28.161h15.036v65.762h-146.526v-65.762h15.036c.374 11.065 5.514 21.273 14.255 28.161zm-99.599-108.924h85.309v65.763h-95.488zm-12.5 80.763h67.809v65.762h-77.988zm-12.5 80.762h29.545v65.763h-39.724zm71.071 114.025v32.5h-50c-22.767 0-40.62-20.262-37.058-43.235l3.487-22.527h89.417c-3.781 10.384-5.846 21.586-5.846 33.262zm180 32.5h-165v-32.5c0-45.49 37.01-82.5 82.5-82.5s82.5 37.01 82.5 82.5zm-82.5-130c-36.215 0-67.88 19.849-84.692 49.237h-39.333v-65.763h248.051v65.763h-39.333c-16.813-29.388-48.478-49.237-84.693-49.237zm181.071 64.237 3.487 22.526c3.564 23-14.314 43.236-37.058 43.236h-50v-32.5c0-11.676-2.065-22.878-5.846-33.263h89.417zm-14.822-95.762h-77.986v-65.762h67.808z"/><path d="m201.051 119.356v-12c0-4.143-3.357-7.5-7.5-7.5s-7.5 3.357-7.5 7.5v12c0 4.143 3.357 7.5 7.5 7.5s7.5-3.357 7.5-7.5z"/><path d="m325.948 119.356v-12c0-4.143-3.357-7.5-7.5-7.5s-7.5 3.357-7.5 7.5v12c0 4.143 3.357 7.5 7.5 7.5s7.5-3.357 7.5-7.5z"/><path d="m278.118 123.926c2.722-3.122 2.396-7.86-.728-10.581-3.123-2.722-7.86-2.397-10.581.728-5.726 6.569-15.898 6.564-21.619 0-2.721-3.124-7.459-3.448-10.581-.728-3.123 2.721-3.449 7.459-.728 10.581 11.703 13.431 32.546 13.419 44.237 0z"/></g></g></svg>