<svg xmlns="http://www.w3.org/2000/svg" viewBox="0 0 505.6 505.6"><g transform="translate(0 1)"><path d="M453 273.4c-.7-11.3-2.2-22.6-4.5-33.7l-1.4-6.6c-8.3-35.6-21.5-70-39.3-101.9 15-26.7 19.3-61.3 20.3-86.5a11.8 11.8 0 00-19.8-8 97.8 97.8 0 01-45 31.1C331.3 32.5 293 8.4 251.8 8.4c-14.7 0-29.2 3-42.7 8.7L190.7 26a209.5 209.5 0 00-50.3 41.8 64.6 64.6 0 01-19-8.3 124 124 0 01-26.2-22.7 11.8 11.8 0 00-19.7 7.9c.1 5.2.5 10.7 1 16.5 1.6 24.4 8.1 48.3 19.2 70a389.3 389.3 0 00-39 100.6l-1.5 6.8a231 231 0 00-4.6 37c-24 26-50.6 59-50.6 78.8 0 31.5 14.4 47.4 42.9 47.4 4.8 0 9.6-.4 14.3-1.2l8.3-1.8.3.2c3.9-.8 7.9-1.8 12-3 7.6-2.2 15.5-4 23.3-5.6a193 193 0 0066.8 34.3v16.5c11 1.8 22.3 2.9 33.5 3.3v-12a316.4 316.4 0 00100.8 0v41.7c-10.5 5.7-16.8 13-16.8 21h151c0-18.5-33.8-33.5-75.5-33.5-8.4 0-16.8.6-25.2 1.9v-38.9a201 201 0 0067.3-34.6c8.4 1.7 16.7 3.6 24.8 6 9.2 2.7 18.6 4.5 28 5.5l7 .2c28.4 0 42.8-16 42.8-47.4 0-20.4-28.2-54.9-52.7-81z" fill="#2e7d32"/><path d="M470 362.8c0 18-4.8 31-14.2 38.8-9.5-1-18.8-2.8-28-5.6a354 354 0 00-24.7-6h-.1a147 147 0 01-17.6 12.6c-6-1.5-12-2.9-18-4.1a189 189 0 01-65.2 34 316.3 316.3 0 01-100.7 0v12a288 288 0 01-33.6-3.3v-16.5a193 193 0 01-66.8-34.3c-7.8 1.7-15.7 3.4-23.2 5.6-4.2 1.2-8.2 2.2-12.1 3l-.3-.2-8.3 1.8c-4.7.8-9.5 1.2-14.3 1.2-28.5 0-42.9-16-42.9-47.4 0-19.8 26.6-52.9 50.6-78.7v-.1c.6-12.4 2.1-24.8 4.6-37l1.5-6.8c8.3-35.1 21.5-69 39-100.5a180.8 180.8 0 01-19.2-70c-.5-5.9-.9-11.4-1-16.6a11.8 11.8 0 0119.7-8c7.6 8.9 16.5 16.5 26.3 22.8a64.7 64.7 0 0019 8.3A209.5 209.5 0 01190.5 26h.1l18.4-9a101.2 101.2 0 0114 0c35.2 2.3 66.5 21.9 91.3 45.6 4.6 4.3 9 8.8 13.3 13.5a371 371 0 0183.8 165.4l1.5 6.6c2.2 11.1 3.7 22.4 4.3 33.7 24.5 26 52.7 60.6 52.7 81z" fill="#4caf50"/><path d="M65.5 398.8l.3.2c-3 .7-5.9 1.2-8.6 1.6l8.3-1.8z" fill="#558b30"/><path d="M218.2 495.2h-151c0-9.6 9.1-18.3 23.7-24.4 13.2-5.2 27.2-8.2 41.4-8.8 3.3-.3 6.9-.3 10.4-.3 7.7 0 15.5.5 23.2 1.6l2 .3v-22.4c11 1.8 22.3 2.9 33.5 3.3v29.7c10.5 5.7 16.8 13 16.8 21z" fill="#2e7d32"/><path d="M190.7 26a137 137 0 0118.4-9l-18.4 9z" fill="#558b30"/><g fill="#cfd8dc"><path d="M140.4 67.8a339.9 339.9 0 00-44.6 63.5h-.1c-15-26.7-19.2-61.4-20.2-86.6a11.8 11.8 0 0119.7-8 97.3 97.3 0 0045.2 31.1zM428 44.7c-1 25.2-5.1 59.8-20.2 86.5a345.7 345.7 0 00-44.5-63.4 97.8 97.8 0 0045-31 11.8 11.8 0 0119.8 7.9z"/></g><path d="M310.6 190a75.5 75.5 0 10-117.7 0" fill="#fff"/><circle cx="251.8" cy="125.9" r="25.2" fill="#e91e63"/><path d="M340.8 206.6c-1 0-2-.2-2.9-.5-5.8-2.1-11.7-4-17.7-5.4a236.8 236.8 0 00-43.7-6.7 337 337 0 00-72.4 2.6 236.8 236.8 0 00-38.4 9.5 8.4 8.4 0 01-5.8-15.8c6.4-2.3 12.9-4.3 19.5-5.9a256.4 256.4 0 0146.4-7.2 352.8 352.8 0 0176.3 2.8 256 256 0 0122.1 4.4c6.6 1.6 13.1 3.6 19.5 6a8.4 8.4 0 01-2.9 16.2z" fill="#3d324c"/><g fill="#f5efca"><path d="M175.5 250l-21.3 21.3a8.4 8.4 0 01-14.2-4.6l-5.7-34.3c13.1 7.2 27 13 41.2 17.6zM360.2 237l-5 29.7a8.4 8.4 0 01-14.2 4.6l-19.5-19.6c13.4-3.3 26.4-8.3 38.7-14.7zM317.8 252.6L307 282a9.7 9.7 0 01-16.4 1.9l-22.1-26.3v-.2c16.5-.1 33-1.7 49.2-4.8z"/></g><g fill="#00695c"><path d="M201.4 432.5v41.7a104 104 0 00-33.5-10.6v-38.9c11 3.4 22.2 6 33.5 7.8zM335.7 424.7v38.9a104 104 0 00-33.5 10.6v-41.7a248 248 0 0033.5-7.8z"/></g><g fill="#cc66a1"><path d="M42.9 401.8c-28.5 0-42.9-16-42.9-47.4 0-21 29.8-56.8 54.8-83.2a8.4 8.4 0 0112.1 11.6c-30.4 32.1-50.1 60.2-50.1 71.6 0 22.3 7 30.6 26 30.6a115 115 0 0030.4-5.1c11.6-3.3 23.4-5.8 34.9-8.2l1-.2 7.6-1.2c5.8-.8 16.5-2.2 19-5.3.5-1 .8-2.1.6-3.3-.4-3.8-2-7.4-4.6-10.1-10.7-12.1-31.2-13.8-47.8-14a8.4 8.4 0 110-16.8h.1c20.1.2 45.2 2.6 60.3 19.6a34.2 34.2 0 018.8 20.4c.4 5.3-1.2 10.5-4.4 14.8-6.7 8.2-19.4 10-29.7 11.4-2.4.3-4.7.6-6.5 1l-1 .2c-11.2 2.3-22.7 4.7-33.6 7.8a131.5 131.5 0 01-35 5.8zM462.8 401.8c-11.9-.3-23.7-2.3-35-5.8-11-3.1-22.5-5.5-33.6-7.8l-1-.2c-1.9-.4-4.1-.7-6.6-1-10.2-1.4-23-3.2-29.6-11.4a21.7 21.7 0 01-4.4-14.8c.6-7.6 3.6-14.7 8.8-20.4 15-17 40.1-19.4 60.2-19.6h.1a8.4 8.4 0 110 16.8c-16.6.2-37 1.9-47.8 14a17.5 17.5 0 00-4.6 10.2c-.1 1.1.1 2.3.7 3.3 2.4 3 13.1 4.4 18.9 5.2l7.7 1.2 1 .2c11.5 2.4 23.3 4.9 34.8 8.2 9.9 3 20 4.8 30.4 5.1 19 0 26-8.3 26-30.6 0-11.3-19.6-39.5-50.1-71.6a8.4 8.4 0 1112.2-11.6c25 26.4 54.7 62.2 54.7 83.2 0 31.5-14.4 47.4-42.8 47.4z"/></g></g><path d="M461.6 283.9a228 228 0 00-6-50.4l-.3-1.2c-8.2-34.9-21-68.5-38.1-100A208 208 0 00436.5 46 20.1 20.1 0 00402 32.2a97.7 97.7 0 01-36.4 27C333.7 24.8 295 1 251.8 1c-43 0-81.6 23.8-113.8 58.3a97.3 97.3 0 01-36.6-27.1c-5.6-6-14.4-7.8-21.8-4.4A19.1 19.1 0 0067 46c.1 30 6.7 59.4 19.3 86.6A401.2 401.2 0 0048.5 231l-1.5 7a232.6 232.6 0 00-5 45.9v2.2c-21.3 24-42 51.8-42 69.3 0 31.5 14.4 47.4 42.9 47.4 11.9-.3 23.6-2.3 35-5.8 4.2-1.2 8.6-2.2 13-3.3 20 17.3 43.4 30.3 68.6 38.3v23c-5.4-.5-11-.7-16.8-.7-47.9 0-84 18-84 42 0 4.6 3.8 8.3 8.4 8.3h151.1c4.7 0 8.4-3.7 8.4-8.4a32 32 0 00-16.8-25.7v-27.3c27.9 3.6 56.1 3.6 84 0v27.3a32 32 0 00-16.8 25.7c0 4.7 3.7 8.4 8.4 8.4h151c4.7 0 8.5-3.7 8.5-8.4 0-23.9-36.1-42-84-42-5.8 0-11.4.3-16.8.8v-23c25.5-8 49-21.2 69.1-38.7l14.6 3.7c11.3 3.5 23.1 5.5 35 5.8 28.4 0 42.8-16 42.8-47.4 0-18-22-47-44-71.5zm-47-240.5c.5-.6 2-.5 3 0 1 .4 2.1 1.2 2 2-.3 23.5-4.6 46.9-12.7 69a354 354 0 00-29.4-41.8c14.2-7.1 26.8-17 37-29.2zm-330.8 2c0-.8 1-1.6 2-2 1.2-.5 2.6-.6 3.1 0 10.3 12.2 23 22.1 37.3 29.3a356.2 356.2 0 00-29.5 42 211 211 0 01-12.9-69.3zm92.5 442.4H80.4c9.4-8.4 31.7-16.7 62.3-16.7s53 8.3 62.3 16.7h-28.7zm16.7-25.5c-5.4-2-11-3.6-16.7-4.8v-20.7a272 272 0 0016.7 3.8v21.7zm230.2 25.5H298.6c9.4-8.4 31.7-16.7 62.3-16.7s53 8.3 62.3 16.7zm-95.9-30.3c-5.7 1.2-11.3 2.8-16.7 4.8v-21.7c5.7-1.1 11.3-2.3 16.7-3.7v20.6zM462.8 386c-10.3-.3-20.5-2-30.4-5a456.3 456.3 0 00-34.8-8.3l-1-.2-7.7-1.2c-5.8-.8-16.5-2.2-18.9-5.2-.6-1-.8-2.2-.7-3.3.4-3.8 2-7.4 4.6-10.2 10.7-12.1 31.2-13.8 47.9-14a8.4 8.4 0 100-16.8h-.2c-20.1.2-45.1 2.6-60.2 19.6a34.3 34.3 0 00-8.8 20.4 21.7 21.7 0 004.4 14.8c6.6 8.2 19.4 10 29.6 11.4l5.6.8c-34.6 26-83.7 40.3-140.4 40.3-56.5 0-105.4-14.1-140-40l.7-.1c1.8-.4 4-.7 6.5-1 10.3-1.4 23-3.2 29.7-11.4 3.2-4.3 4.8-9.5 4.4-14.8a34.2 34.2 0 00-8.8-20.4c-15.1-17-40.2-19.4-60.3-19.6a8.4 8.4 0 10-.1 16.8c16.6.2 37.1 1.9 47.8 14 2.6 2.7 4.2 6.3 4.6 10.1.2 1.2 0 2.3-.6 3.3-2.5 3-13.2 4.5-19 5.3l-7.6 1.2-1 .2a459 459 0 00-34.9 8.2c-9.8 3-20 4.8-30.3 5.1-19 0-26.1-8.3-26.1-30.6 0-10 15.5-33.3 40.2-60.8 3.2-3.6 6.5-7.2 10-10.8 3.1-3.4 3-8.7-.4-11.9a8.3 8.3 0 00-7.2-2c.8-9.6 2.1-19 4-28.4l1.5-6.8a382.6 382.6 0 0136.8-96.8c1-1 1.7-2.2 2-3.6a327.2 327.2 0 0143.9-61.4c30.7-33.3 66.8-55 104.2-55 90.5 0 166.8 126.6 187.1 218l.3 1.3 1.1 5.2c1.9 9 3.1 18.2 3.9 27.4-2 0-3.8.8-5.2 2.1a8.4 8.4 0 00-.3 11.9c30.5 32.1 50.2 60.3 50.2 71.6 0 22.3-7.1 30.6-26.1 30.6z"/><path d="M251.8 160.5a33.6 33.6 0 100-67.2 33.6 33.6 0 000 67.2zm0-50.4a16.8 16.8 0 110 33.6 16.8 16.8 0 010-33.6z"/><path d="M165.7 207a236.8 236.8 0 0161.4-12 337 337 0 0172.4 2.6 236.8 236.8 0 0138.4 9.5 8.4 8.4 0 005.8-15.8c-6.3-2.3-12.7-4.2-19.2-5.8a84 84 0 10-145.4 0c-6.5 1.6-13 3.5-19.2 5.8a8.4 8.4 0 105.8 15.8zm86.1-130.4A67.2 67.2 0 01307 181.9l-4.9-.9a352.8 352.8 0 00-100.6 0l-4.8.9a67.2 67.2 0 0155.2-105.3zM402.5 221.6a44.1 44.1 0 00-37 4.3c-33.3 16.7-48.5 24.3-113.7 24.3s-80.4-7.6-113.8-24.3a44 44 0 00-36.9-4.3 30.6 30.6 0 00-16.7 17.6 8.4 8.4 0 1015.9 5.3c1.4-3.3 4-6 7.3-7.4a26 26 0 0119.2 2.2l5 29.7a16.7 16.7 0 0028.3 9.2l18-17.9c24.2 5.2 49 7.5 73.7 6.7l12.8-.1L284 290a18.3 18.3 0 0017.4 6.6 17 17 0 0013.5-10.8l7.4-20.4 12.7 12.7a16.7 16.7 0 0017 4c6-1.8 10.4-7 11.4-13.2l4.2-25.4 5.4-2.7c6.7-4.3 15-5.7 22.8-3.8 3.4 1.4 6 4 7.4 7.5a8.4 8.4 0 0016-5.4c-3-8-9-14.3-16.8-17.6zm-254.2 44.7l-3-18.2c5 2.4 9.8 4.5 14.7 6.5l-11.7 11.7zm151 13.6c-.3.2-.7.3-1 .2-.5 0-1-.3-1.2-.6L285.8 266c7-.4 13.4-1 19.2-1.9l-5.6 15.8zm47.7-13.6l-9.6-9.5c4-1.4 8-3 11.9-4.6l-2.3 14.1z"/></svg>