<svg height="512" width="512" xmlns="http://www.w3.org/2000/svg"><path d="M512 105c0 4.2-1.8 8.4-5.1 11.1L249.2 345a13.8 13.8 0 01-9.9 3.9c-2.4 0-5.1-.6-7.5-2.1L209 334.2a15.7 15.7 0 01-7.2-11.1c-.6-3.3-2.1-6.6-4.2-8.7s-5.4-3.6-8.7-3.9a17 17 0 01-11.1-7.5l-12.9-22.8a15 15 0 012.1-17.4L395.9 5.1C398.6 1.8 402.8 0 407 0l30 75z" fill="#f0f7ff"/><path d="M437 75L197.6 314.4a17 17 0 014.2 8.7c.6 4.5 3.3 8.7 7.2 11.1l22.8 12.6c2.4 1.5 5.1 2.1 7.5 2.1 3.6 0 7.2-1.2 9.9-3.9l257.7-228.9c3.3-2.7 5.1-6.9 5.1-11.1z" fill="#dfe7f4"/><path d="M75 512H15a15 15 0 01-15-15v-60a15 15 0 0115-15h11.5l107.4-107.4a15 15 0 0121.2 0l42.3 42.3a15 15 0 010 21.2L90 485.5V497a15 15 0 01-15 15z" fill="#5e79bc"/><path d="M90 485.5l107.4-107.4a15 15 0 000-21.2l-21.2-21.2L4.4 507.6A15 15 0 0015 512h60a15 15 0 0015-15z" fill="#47568c"/><path d="M163.7 359.4A15 15 0 01153 355l-82.8-82.8a15 15 0 01-2.8-17.3l42.3-84.9a15 15 0 0113-8.3c5.2.2 10.7 2.8 13.4 7.6L204.1 288a15 15 0 01-15.6 22.2c-4.2-.7-9 .8-12.4 4.2a15 15 0 00-1 20.2 15 15 0 01-11.4 24.7zm1.8-55.5h.3z" fill="#ffe14d"/><path d="M250.4 446.1a15 15 0 01-10.6-4.4l-82.5-82.5a15 15 0 0120.1-22.2 15.3 15.3 0 0020.1-1.1c3.4-3.4 5-8 4.2-12.4A15 15 0 01224 308l118.9 67.8a15 15 0 01-.8 26.4l-85 42.3a15 15 0 01-6.6 1.6z" fill="#fb3"/><path d="M186.7 370.2c-10 0-20.1-3.3-28.3-10L153 355a45.4 45.4 0 011.8-61.7 45.3 45.3 0 0163.8 0c6.6 6.6 11.2 15.9 12.6 25.4a45.1 45.1 0 01-44.6 51.5z" fill="#ff9580"/><path d="M231.3 318.7c-1.4-9.5-6-18.7-12.6-25.4L155 356.9l3.4 3.3a45.1 45.1 0 0073-41.5z" fill="#f66"/><path d="M497 0h-90v105h105V15c0-8.4-6.6-15-15-15z" fill="#dfe7f4"/><path d="M507.6 4.3L407 105h105V15c0-4.2-1.7-8-4.4-10.7z" fill="#c7cfe1"/></svg>