<svg xmlns="http://www.w3.org/2000/svg" viewBox="0 0 512 512"><g fill="#fbb429"><circle cx="256" cy="447.2" r="54.6"/><path d="M225.2 331.6h61.6a23.8 23.8 0 0023.8-23.8V34a23.8 23.8 0 00-23.8-23.8h-61.6A23.8 23.8 0 00201.4 34v273.8a23.8 23.8 0 0023.8 23.8z"/></g><g fill="#4d4d4d"><path d="M256 512a64.9 64.9 0 11.1-129.8A64.9 64.9 0 01256 512zm0-109.2a44.5 44.5 0 10.1 88.9 44.5 44.5 0 00-.1-89zM286.8 341.8h-61.6a34 34 0 01-34-34V34a34 34 0 0134-34h61.6a34 34 0 0134 34v273.8a34 34 0 01-34 34zM225.2 20.4c-7.5 0-13.6 6-13.6 13.6v273.8c0 7.5 6 13.6 13.6 13.6h61.6c7.5 0 13.6-6 13.6-13.6V34c0-7.5-6-13.6-13.6-13.6h-61.6z"/><path d="M233.6 309c-5.7 0-10.2-4.5-10.2-10.2V170.3a10.2 10.2 0 0120.4 0v128.5c0 5.7-4.6 10.2-10.2 10.2zM233.6 150c-5.7 0-10.2-4.6-10.2-10.3v-8.1a10.2 10.2 0 0120.4 0v8.1c0 5.7-4.6 10.2-10.2 10.2z"/></g></svg>