<svg xmlns="http://www.w3.org/2000/svg" viewBox="0 0 486.4 486.4"><path d="M486.4 318v55.3c0 18.8-50.2 34.5-111.8 34.5s-110.8-15.2-110.8-34v-6.2l-1-44h.5c8.4 16.3 54.4 28.8 109.7 28.8s112.4-15.7 112.4-34.5h1z" fill="#e2a63b"/><path d="M371.5 112v55h-1c0 19.3-51.8 34.4-113 34.4-23.4.5-47.5-2-70.5-7.8l-1 1a122 122 0 00-38.7-21.4v-1l-1.5-58C149.4 131.9 198 146 257 146s113.4-15.1 113.4-34h1z" fill="#f4b844"/><path d="M371.5 113.1c0 18.8-51.8 34-113.4 34S149.9 133 146.3 115.2c0-.5-.5-1.6-.5-2 0-18.9 50.1-34.6 112.3-34.6 62.2-.5 113.4 15.2 113.4 34.5z" fill="#fedb41"/><path d="M263.3 323.7l-.5-11.5-1-47C265.4 282.9 314 297 373 297S484.3 282 486 263.6h.5v54.3h-1c0 18.8-50.7 34.5-112.4 34.5-61.6 0-101.3-12.5-109.7-28.7z" fill="#f4b844"/><path d="M188.6 358.7c14.1-13 25-29.8 30.8-48h2.6c11.5 1 23 1.5 35.6 1.5h5.2v11.5l1 43.9h-5.7c-23 .5-45.5-2.1-68-7.4l-1.5-1.5z" fill="#e2a63b"/><path d="M263.3 261v2.6l1 48.6h-5.2c-13 0-25-.5-36.5-1.6H220a107.2 107.2 0 002.6-56.4h2.6c11 1 22 1.5 34 1.5l4.6 2.7c-.5 1-.5 2-.5 2.6z" fill="#f4b844"/><path d="M187 193.6c23 5.7 47 8.3 70.6 7.8 61.1 0 112.8-15.1 112.8-34.5h1v61.7c-56.9 0-103.4 13.6-109.1 30.8l-4.7-2.6a331 331 0 01-33-1.6H222c-4.7-24-17.2-45.4-36-61.1l1-.5z" fill="#e2a63b"/><g fill="#fedb41"><path d="M223 255.2c-5.1-24-18.2-46-37-62.1a99.3 99.3 0 00-39.7-22A112.2 112.2 0 000 277.1a112.2 112.2 0 00188.6 83.7 113.5 113.5 0 0036.6-83.1c0-7.3-2.1-15.2-2.1-22.5zM485.9 262.5v1C484.3 282 433.6 297 373 297s-107.6-14-111.2-31.8v-2.7c0-1 0-2 .5-3 5.7-17.3 52.2-31 109.2-31h1.5c61.7 0 112.9 15.2 112.9 34z"/></g><path d="M113.4 264.1c-9.4 0-17.3-7.8-17.3-17.2 0-9.4 7.9-17.3 17.3-17.3s17.2 7.9 17.2 17.3a10.5 10.5 0 0020.9 0 38.6 38.6 0 00-27.7-36.6V206c0-5.7-4.7-10.4-10.4-10.4s-10.5 4.7-10.5 10.4v4.2a36.5 36.5 0 00-27.7 36.6 38.4 38.4 0 0038.2 38.1c9.4 0 17.2 7.8 17.2 17.2 0 9.4-7.8 17.3-17.2 17.3-9.4 0-17.3-7.9-17.3-17.3 0-5.7-4.7-10.4-10.4-10.4s-10.5 4.7-10.5 10.4a38 38 0 0027.7 36.6v8.4c0 5.7 4.7 10.4 10.5 10.4s10.4-4.7 10.4-10.4v-8.4a37.7 37.7 0 0025.6-47.5 38 38 0 00-36-27.2z" fill="#e2a63b"/></svg>