<svg xmlns="http://www.w3.org/2000/svg" viewBox="0 0 512 512"><path fill="#f2484b" d="M501.7 155.2h-145v-145H155.3v145h-145v201.6h145v145h201.6v-145h145z"/><path d="M356.8 512H155.2c-5.6 0-10.2-4.6-10.2-10.3V367H10.3C4.6 367 0 362.4 0 356.8V155.2c0-5.6 4.6-10.2 10.3-10.2H145V10.3C145 4.6 149.6 0 155.2 0h201.6c5.6 0 10.2 4.6 10.2 10.3V145h134.7c5.7 0 10.3 4.6 10.3 10.2v201.6c0 5.6-4.6 10.2-10.3 10.2H367v134.7c0 5.7-4.6 10.3-10.2 10.3zm-191.3-20.6h181V356.8c0-5.7 4.6-10.3 10.3-10.3h134.6v-181H356.8c-5.7 0-10.3-4.6-10.3-10.3V20.6h-181v134.6c0 5.7-4.6 10.3-10.3 10.3H20.6v181h134.6c5.7 0 10.3 4.6 10.3 10.3v134.6z"/><path d="M219 483.2h-3.1a10.3 10.3 0 010-20.5h3a10.3 10.3 0 010 20.5zM328 483.2h-76.1a10.3 10.3 0 010-20.5h76a10.3 10.3 0 010 20.5z"/></svg>