<svg height="512" width="512" xmlns="http://www.w3.org/2000/svg"><g data-name="filled outline"><path d="M440 488H72l-16-24 16-24v-90.2A320 320 0 01207.5 88.4l.5-.4h96l.5.4A320 320 0 01440 349.8V432l16 32z" fill="#8dc79d"/><path d="M160 424h312l16 64H144z" fill="#e2982b"/><path d="M192 360h248l16 64H176z" fill="#ea9d2d"/><path d="M168 24l40 64h96l48-64z" fill="#8dc79d"/><path d="M224 488h-80l16-64h48z" fill="#ecaa3c"/><path d="M256 424h-80l16-64h48z" fill="#f3af3e"/><path d="M112 370.4a8 8 0 01-8-8v-14a304.6 304.6 0 018.2-70.2 8 8 0 0115.6 3.7 288.5 288.5 0 00-7.8 66.5v14a8 8 0 01-8 8zM112 410.4a8 8 0 01-8-8v-8a8 8 0 0116 0v8a8 8 0 01-8 8z" fill="#85bc94"/><path d="M296 224v-7.2a32.8 32.8 0 00-32-32.8v-13.3h-16V184a32.8 32.8 0 00-9.6 64l30.1 10a16.8 16.8 0 01-5.3 32.7h-14.4a16.8 16.8 0 01-16.8-16.8v-7.2h-16v7.2a32.8 32.8 0 0032 32.7V320h16v-13.4a32.8 32.8 0 009.6-63.8l-30.1-10a16.8 16.8 0 015.3-32.8h14.4a16.8 16.8 0 0116.8 16.8v7.2z" fill="#5e8569"/><path d="M316.8 96H208a8 8 0 010-16h108.8a98.1 98.1 0 0077-37 8 8 0 1112.4 10 114 114 0 01-89.4 43z" fill="#55785f"/><path d="M320 328l-6.9 13.8a25.3 25.3 0 01-11.3 11.3L288 360l13.8 6.9a25.3 25.3 0 0111.3 11.3L320 392l6.9-13.8a25.3 25.3 0 0111.3-11.3L352 360l-13.8-6.9a25.3 25.3 0 01-11.3-11.3zM448 360l-6.9 13.8a25.3 25.3 0 01-11.3 11.3L416 392l13.8 6.9a25.3 25.3 0 0111.3 11.3L448 424l6.9-13.8a25.3 25.3 0 0111.3-11.3L480 392l-13.8-6.9a25.3 25.3 0 01-11.3-11.3zM376 264l-6.9 13.8a25.3 25.3 0 01-11.3 11.3L344 296l13.8 6.9a25.3 25.3 0 0111.3 11.3L376 328l6.9-13.8a25.3 25.3 0 0111.3-11.3L408 296l-13.8-6.9a25.3 25.3 0 01-11.3-11.3z" fill="#fece2f"/><path d="M56 72h16v16H56zM56 120h16v16H56z" fill="#fbb540"/><path d="M48 184h16v16H48zM48 216h16v16H48zM64 200h16v16H64zM32 200h16v16H32z" fill="#f3af3e"/><g fill="#fbb540"><path d="M80 96h16v16H80zM32 96h16v16H32zM440 112h16v16h-16zM440 160h16v16h-16zM464 136h16v16h-16zM416 136h16v16h-16z"/></g><path d="M65.3 492.4A8 8 0 0072 496h416a8 8 0 007.8-10l-16-64a8 8 0 00-7.8-6h-11l1-2.2a17.4 17.4 0 017.8-7.8l13.8-6.8a8 8 0 000-14.4l-13.8-6.8a17.4 17.4 0 01-7.8-7.8l-6.8-13.8a8 8 0 00-7.2-4.4v-2.2A328.5 328.5 0 00327.2 95.5a114 114 0 0079-42.5 8 8 0 10-12.4-10A98 98 0 01320 80l38.4-51.2A8 8 0 00352 16H168a8 8 0 00-6.8 12.2l36 57.7A328.4 328.4 0 0064 349.9v87.7l-14.7 22a8 8 0 000 8.8zm89-12.4l12-48h35.5l12 48zm32-64l12-48h35.5l12 48zm279.5 16l12 48H230.2l-12-48zM448 377.9a33.6 33.6 0 0014.1 14.1 33.6 33.6 0 00-14.1 14.1 33.6 33.6 0 00-14.1-14.1 33.6 33.6 0 0014.1-14.1zm-13.8-8.2l-.2.5a17.4 17.4 0 01-7.8 7.8l-13.8 6.8a8 8 0 000 14.4l13.8 6.8a17.4 17.4 0 017.8 7.8l1 2.2H262.3l-12-48h36l12 6a17.4 17.4 0 017.8 7.8l6.8 13.8a8 8 0 0014.4 0l6.8-13.8a17.4 17.4 0 017.8-7.8l12-6h80zM305.9 360a33.6 33.6 0 0014.1-14.1 33.6 33.6 0 0014.1 14.1 33.6 33.6 0 00-14.1 14.1 33.6 33.6 0 00-14.1-14.1zM182.4 32H336l-36 48h-87.6zM78.7 444.4A8 8 0 0080 440v-90.2A312.4 312.4 0 01210.5 96h91A312.4 312.4 0 01432 349.8v2.2h-78.1l-12.1-6a17.4 17.4 0 01-7.8-7.8l-6.8-13.8a8 8 0 00-14.4 0l-6.8 13.8a17.4 17.4 0 01-7.8 7.8l-12 6H192a8 8 0 00-7.8 6l-14.4 58H160a8 8 0 00-7.8 6l-14.4 58H76.3l-10.7-16z"/><path d="M112 370.4a8 8 0 008-8v-14a288.5 288.5 0 017.8-66.5 8 8 0 00-15.6-3.7 304.6 304.6 0 00-8.2 70.2v14a8 8 0 008 8zM112 410.4a8 8 0 008-8v-8a8 8 0 00-16 0v8a8 8 0 008 8zM248 306.6V320h16v-13.4a32.8 32.8 0 009.6-63.8l-30.1-10a16.8 16.8 0 015.3-32.8h14.4a16.8 16.8 0 0116.8 16.8v7.2h16v-7.2a32.8 32.8 0 00-32-32.8v-13.3h-16V184a32.8 32.8 0 00-9.6 64l30.1 10a16.8 16.8 0 01-5.3 32.7h-14.4a16.8 16.8 0 01-16.8-16.8v-7.2h-16v7.2a32.8 32.8 0 0032 32.7zM340.4 303.2l13.8 6.8a17.4 17.4 0 017.8 7.8l6.8 13.8a8 8 0 0014.4 0l6.8-13.8a17.4 17.4 0 017.8-7.8l13.8-6.8a8 8 0 000-14.4l-13.8-6.8a17.4 17.4 0 01-7.8-7.8l-6.8-13.8a8 8 0 00-14.4 0l-6.8 13.8a17.4 17.4 0 01-7.8 7.8l-13.8 6.8a8 8 0 000 14.4zm35.6-21.3a33.6 33.6 0 0014.1 14.1 33.6 33.6 0 00-14.1 14.1 33.6 33.6 0 00-14.1-14.1 33.6 33.6 0 0014.1-14.1zM56 72h16v16H56zM56 120h16v16H56zM48 184h16v16H48zM48 216h16v16H48zM64 200h16v16H64zM32 200h16v16H32zM80 96h16v16H80zM32 96h16v16H32zM440 112h16v16h-16zM440 160h16v16h-16zM464 136h16v16h-16zM416 136h16v16h-16z"/></g></svg>