<svg height="512" width="512" xmlns="http://www.w3.org/2000/svg"><g fill="#8288cb"><path d="M124.5 343l-20-10L81 343l-12.5 80.7-4.5 29a45 45 0 0044.5 51.8h76.7v-80.8zM175.2 292.2l80.8-30v-80.7l-80.8-20-69.2 20-12.5 80.7h1zM336.8 323L256 343l-20 40.4 20 40.3 70.8 30 60.7-30 20-37.2-20-43.5z"/></g><g fill="#9ea2e3"><path d="M431 343l-20.5-10-23 10v80.7l30 10 26-10zM406 181.4l-69.2-20-80.8 20v80.8h-80.8L124.5 343v80.7H256V343h80.8l80.7-80.8h1z"/></g><g fill="#d4d4ff"><path d="M431 343l-12.5-80.8h-81.7V343zM93.5 262.2L81 343h94.2v-80.8H94.5zM448 452.6l-4.5-28.9H326.8v80.8h76.7a45 45 0 0044.5-51.9z"/></g><path d="M256 161.4l-50.8 20 12.2 60h59.4l30-60z" fill="#ff8e9e"/><path d="M205.2 181.4v87c0 4.2 1 8.3 2.6 12h39v-39c-19-15.3-33.6-36-41.6-60z" fill="#ea5b70"/><path d="M306.8 181.4l-60 60 27 27h33z" fill="#55dafe"/><path d="M207.8 280.4c2 4.5 5 8.5 8.9 11.6l20.7 16.3a30 30 0 0037.2 0l20.7-16.3a30 30 0 0011.5-23.6c-22.4-3.7-43-13.2-60-27z" fill="#2ed0fc"/><path d="M427.2 7.5h-24.8A37.3 37.3 0 00365 44.8v24.8h-49.4V44.8a37.3 37.3 0 00-37.3-37.3h-13.3c-7.3 0-14.2 3.7-18.2 9.8l-13.3 20v107.5l13.6 25.2c3.8 7 11.2 11.4 19.2 11.4H427.2a37.3 37.3 0 0037.3-37.2V44.8a37.3 37.3 0 00-37.3-37.3z" fill="#d4d4ff"/><path d="M246.3 144.2V39.8c0-20.6 6.7-32.3 27.3-32.3h-40a37.3 37.3 0 00-37.3 37.3v24.8h-49.4V44.8a37.3 37.3 0 00-37.3-37.3H84.8a37.3 37.3 0 00-37.3 37.3v99.4a37.3 37.3 0 0037.3 37.3h198.8a37.3 37.3 0 01-37.3-37.3z" fill="#9ea2e3"/><g fill="#ff8e9e"><path d="M176.4 118.5c-16.2 0-29.3 10.4-29.3 23.4s13.1 23.3 29.3 23.3 29.4-10.4 29.4-23.3-13.1-23.4-29.4-23.4zM335.6 118.5c-16.3 0-29.4 10.4-29.4 23.4s13.1 23.3 29.4 23.3 29.3-10.4 29.3-23.3-13.1-23.4-29.3-23.4z"/></g><g><path d="M301 386.5l-45-12a89.6 89.6 0 00-45 12v118h135v-40a90 90 0 00-45-78z" fill="#ce857a"/><path d="M211 386.5l-20 67.2 20 50.8h135a152.6 152.6 0 01-135-118z" fill="#bd7669"/><path d="M166 464.5v40h45v-118a90 90 0 00-45 78z" fill="#ac6757"/><path d="M256 374.5v130h45v-118a89.6 89.6 0 00-45-12z" fill="#bd7669"/><path d="M256 464.4v40.1h45v-11.1c-16.7-7-31.9-16.8-45-29z" fill="#ac6757"/></g><g><path d="M427.2 0h-24.8c-24.7 0-44.8 20-44.8 44.8V62h-34.4V44.8c0-24.7-20-44.8-44.8-44.8h-44.8c-24.7 0-44.8 20-44.8 44.8V62h-34.4V44.8c0-24.7-20-44.8-44.8-44.8H84.8C60 0 40 20 40 44.8v30.4a7.5 7.5 0 1015 0V44.8A29.8 29.8 0 0184.8 15h24.8a29.8 29.8 0 0129.8 29.8v24.8c0 4.2 3.4 7.5 7.5 7.5h49.4c4.1 0 7.5-3.3 7.5-7.5V44.8A29.8 29.8 0 01233.6 15h44.8a29.8 29.8 0 0129.8 29.8v24.8c0 4.2 3.4 7.5 7.5 7.5h49.4c4.1 0 7.5-3.3 7.5-7.5V44.8A29.8 29.8 0 01402.4 15h24.8A29.8 29.8 0 01457 44.8v99.4a29.8 29.8 0 01-29.8 29.7H84.8A29.8 29.8 0 0155 144.2v-39a7.5 7.5 0 10-15 0v39c0 24.7 20 44.7 44.8 44.7h12.5L56.6 451.5c-5 32 20 60.5 51.9 60.5h295a52.5 52.5 0 0051.9-60.5l-8.8-56.7a7.5 7.5 0 00-14.8 2.3l3 19.1H395v-65.7h29.6l2.6 17a7.5 7.5 0 0014.8-2.3L414.7 189h12.5c24.7 0 44.8-20.1 44.8-44.8V44.8C472 20 452 0 427.2 0zm-17.4 254.7h-95.5V189h85.3zm-110.5-55.1v68.8c0 7-3.2 13.4-8.6 17.7l-20.8 16.4a22.4 22.4 0 01-27.8 0L221.3 286c-1.6-1.3-3-2.8-4.2-4.4zm-10.6-10.7l-76 76v-76zM212 298l20.8 16.3a37.4 37.4 0 0046.4 0L300 298a37.3 37.3 0 0014.2-28.2h15v65.8H182.8v-65.8h15c.4 11 5.6 21.3 14.3 28.2zm-99.6-109h85.3v65.8h-95.4zM100 269.8h67.8v65.8h-78zm-12.5 80.8H117v65.7H77.3zm71.1 114V497h-50a37.5 37.5 0 01-37-43.2l3.4-22.6h89.4a97 97 0 00-5.8 33.3zm180 32.5h-165v-32.5a82.6 82.6 0 01165 0zM256 367a97.6 97.6 0 00-84.7 49.2H132v-65.7h248v65.7h-39.3A97.6 97.6 0 00256 367zm181 64.2l3.6 22.6a37.5 37.5 0 01-37.1 43.2h-50v-32.5a97 97 0 00-5.8-33.3H437zm-14.8-95.7h-78v-65.8h67.9z"/><path d="M201 119.4v-12a7.5 7.5 0 10-15 0v12a7.5 7.5 0 1015 0zM326 119.4v-12a7.5 7.5 0 10-15 0v12a7.5 7.5 0 1015 0zM278.1 124a7.5 7.5 0 10-11.3-10 14.3 14.3 0 01-21.6 0 7.5 7.5 0 10-11.3 10 29.3 29.3 0 0044.2 0z"/></g></svg>