<svg xmlns="http://www.w3.org/2000/svg" viewBox="0 0 513.1 513.1"><path d="M256.5 508.5C117.3 508.5 4 395.5 4 256.5a252.5 252.5 0 01505 0c0 139-113.2 252-252.5 252z" fill="#fff"/><path d="M256.5 8.5c137 0 248.6 111.3 248.6 248a248.6 248.6 0 01-497.1 0c0-136.7 111.5-248 248.5-248m0-8C115 .5 0 115.2 0 256.5s114.9 256 256.5 256 256.6-114.6 256.6-256S398.2.5 256.5.5z" fill="#666"/><path d="M256.5 42c118.8 0 215.1 96 215.1 214.5s-96.3 214.6-215 214.6-215.1-96-215.1-214.6S137.8 42 256.5 42m0-8c-123 0-223 99.9-223 222.6a223.1 223.1 0 00446.1 0A223 223 0 00256.6 34z" fill="#ccc"/><g fill="#e21b1b"><path d="M232.5 330.6L216.2 301a534 534 0 01-14.8-28.2h-.7c-3.6 8.6-7.5 16.6-13.5 28.2l-15 29.7H141l44.5-75.7-42.7-74H174l16.3 30.9c4.8 9.3 8.4 16.6 12.4 25h.5c4-9.2 7-16 11.7-25l16-30.9h31.4l-43.8 73 45.5 76.7h-31.5zM284.2 182.9a237 237 0 0141.8-3.1c20 0 34.6 4.2 44.2 12.2a42.3 42.3 0 0114.6 33.1c0 14.2-4.4 26-12.8 34-11 10.9-28 16-47.4 16-5 0-9.7-.2-13.3-.9v56.4h-27.1V183zm27.1 69.8c3.3.8 7.8 1 13.3 1 20.5 0 33-10 33-27.5 0-16.6-11.6-25.5-30.5-25.5-7.6 0-13 .6-15.8 1.3v50.7z"/></g></svg>